<svg xmlns="http://www.w3.org/2000/svg" width="100" height="100" viewBox="0 0 100 100">
  <polygon points="50,6 88,28 88,72 50,94 12,72 12,28" fill="#101417" stroke="#E1C47B" stroke-width="2.6"></polygon>
  <polygon points="50,17 78.5,33.5 78.5,66.5 50,83 21.5,66.5 21.5,33.5" fill="none" stroke="#E1C47B" stroke-width="2.6"></polygon>
  <g transform="translate(29.6,29.6) scale(1.7)" fill="#E1C47B">
    <path d="m19 1l-1.26 2.75L15 5l2.74 1.26L19 9l1.25-2.74L23 5l-2.75-1.25M9 4L6.5 9.5L1 12l5.5 2.5L9 20l2.5-5.5L17 12l-5.5-2.5M19 15l-1.26 2.74L15 19l2.74 1.25L19 23l1.25-2.75L23 19l-2.75-1.26"></path>
  </g>
</svg>
